<svg width="178" height="48" viewBox="0 0 178 48" fill="none" xmlns="http://www.w3.org/2000/svg">
<path opacity="0.75" d="M6.99902 7.03906C16.3561 7.03906 23.954 14.6397 23.954 24.0001C14.597 24.0001 6.99902 16.3994 6.99902 7.03906ZM23.9915 24.0001C23.9915 33.3604 31.5894 40.9611 40.9464 40.9611C40.9464 31.6007 33.3485 24.0001 23.9915 24.0001Z" fill="#002872"/>
<path opacity="0.75" d="M0 24C6.6248 17.3729 17.3667 17.3729 23.9915 24C17.3667 30.6272 6.6248 30.6272 0 24ZM23.9915 24C30.6163 30.6272 41.3582 30.6272 47.983 24C41.3208 17.3729 30.6163 17.3729 23.9915 24Z" fill="#0451DD"/>
<path opacity="0.75" d="M23.992 48C17.3672 41.3729 17.3672 30.6271 23.992 24C30.6168 30.6271 30.6168 41.3729 23.992 48ZM23.992 24C30.6168 17.3729 30.6168 6.62714 23.992 0C17.3672 6.62714 17.3672 17.3729 23.992 24Z" fill="#AAC5F7"/>
<path opacity="0.75" d="M6.99902 40.9611C6.99902 31.6007 14.597 24.0001 23.954 24.0001C23.9914 33.3604 16.3935 40.9611 6.99902 40.9611ZM23.9915 24.0001C33.3485 24.0001 40.9464 16.3994 40.9464 7.03906C31.552 7.03906 23.9915 14.6022 23.9915 24.0001Z" fill="#85A4DD"/>
<path opacity="0.75" d="M6.99902 7.03906C16.3561 7.03906 23.954 14.6397 23.954 24.0001C14.597 24.0001 6.99902 16.3994 6.99902 7.03906ZM23.9915 24.0001C23.9915 33.3604 31.5894 40.9611 40.9464 40.9611C40.9464 31.6007 33.3485 24.0001 23.9915 24.0001Z" fill="#5893FF"/>
<path opacity="0.75" d="M0 24C6.6248 17.3729 17.3667 17.3729 23.9915 24C17.3667 30.6272 6.6248 30.6272 0 24ZM23.9915 24C30.6163 30.6272 41.3582 30.6272 47.983 24C41.3208 17.3729 30.6163 17.3729 23.9915 24Z" fill="#033CA5"/>
<path opacity="0.75" d="M23.992 48C17.3672 41.3729 17.3672 30.6271 23.992 24C30.6168 30.6271 30.6168 41.3729 23.992 48ZM23.992 24C30.6168 17.3729 30.6168 6.62714 23.992 0C17.3672 6.62714 17.3672 17.3729 23.992 24Z" fill="#79A9FF"/>
<path opacity="0.75" d="M6.99902 40.9611C6.99902 31.6007 14.597 24.0001 23.954 24.0001C23.9914 33.3604 16.3935 40.9611 6.99902 40.9611ZM23.9915 24.0001C33.3485 24.0001 40.9464 16.3994 40.9464 7.03906C31.552 7.03906 23.9915 14.6022 23.9915 24.0001Z" fill="#3A80FF"/>
<path d="M72.2394 37H67.5994L66.2554 32.968H58.1594L56.7834 37H52.1434L60.4314 14.216H63.9194L72.2394 37ZM65.0714 29.224L62.2874 20.936L59.4074 29.224H65.0714ZM88.4216 29.96H77.9896C77.9896 31.0693 78.3096 31.9653 78.9496 32.648C79.5896 33.3307 80.4856 33.672 81.6376 33.672C82.491 33.672 83.1843 33.5547 83.7176 33.32C84.2723 33.064 84.8376 32.6587 85.4136 32.104L87.9416 34.568C87.0456 35.4853 86.1176 36.1573 85.1576 36.584C84.219 36.9893 83.035 37.192 81.6056 37.192C80.539 37.192 79.5683 37.064 78.6936 36.808C77.8403 36.5307 77.0403 36.0827 76.2936 35.464C75.547 34.8453 74.9603 33.96 74.5336 32.808C74.107 31.656 73.8936 30.2693 73.8936 28.648C73.8936 25.9813 74.555 23.9013 75.8776 22.408C77.2003 20.8933 78.9603 20.136 81.1576 20.136C83.4403 20.136 85.2216 20.8827 86.5016 22.376C87.7816 23.848 88.4216 25.7893 88.4216 28.2V29.96ZM84.3256 27.112C84.3043 26.3867 84.1763 25.7893 83.9416 25.32C83.4296 24.168 82.5016 23.592 81.1576 23.592C79.8136 23.592 78.8856 24.168 78.3736 25.32C78.139 25.7893 78.011 26.3867 77.9896 27.112H84.3256ZM104.449 21.704L101.313 24.872C100.652 24.2107 99.9156 23.88 99.1049 23.88C98.4009 23.88 97.7716 24.1467 97.2169 24.68C96.6836 25.2133 96.4169 25.9707 96.4169 26.952V37H92.2569V20.328H96.3209V21.928C96.7476 21.416 97.3342 20.9893 98.0809 20.648C98.8489 20.3067 99.6596 20.136 100.513 20.136C102.092 20.136 103.404 20.6587 104.449 21.704ZM119.259 28.648C119.259 30.248 119.12 31.5493 118.843 32.552C118.587 33.5333 118.096 34.3973 117.371 35.144C116.048 36.5093 114.32 37.192 112.187 37.192C110.075 37.192 108.357 36.5093 107.035 35.144C106.309 34.376 105.808 33.5013 105.531 32.52C105.275 31.5173 105.147 30.2267 105.147 28.648C105.147 27.0693 105.275 25.7893 105.531 24.808C105.808 23.8267 106.309 22.952 107.035 22.184C108.357 20.8187 110.075 20.136 112.187 20.136C114.363 20.136 116.091 20.8187 117.371 22.184C118.096 22.952 118.587 23.8267 118.843 24.808C119.12 25.7893 119.259 27.0693 119.259 28.648ZM115.099 28.648C115.099 26.5787 114.779 25.2347 114.139 24.616C113.648 24.1253 112.997 23.88 112.187 23.88C111.397 23.88 110.757 24.1253 110.267 24.616C109.627 25.2347 109.307 26.5787 109.307 28.648C109.307 30.7387 109.627 32.0933 110.267 32.712C110.757 33.2027 111.397 33.448 112.187 33.448C112.997 33.448 113.648 33.2027 114.139 32.712C114.779 32.0933 115.099 30.7387 115.099 28.648Z" fill="#134CB5"/>
<path d="M140.986 37H137.018L127.994 23.016V37H123.546V14.216H127.514L136.538 28.168V14.216H140.986V37ZM159.672 29.96H149.24C149.24 31.0693 149.56 31.9653 150.2 32.648C150.84 33.3307 151.736 33.672 152.888 33.672C153.741 33.672 154.434 33.5547 154.968 33.32C155.522 33.064 156.088 32.6587 156.664 32.104L159.192 34.568C158.296 35.4853 157.368 36.1573 156.408 36.584C155.469 36.9893 154.285 37.192 152.856 37.192C151.789 37.192 150.818 37.064 149.944 36.808C149.09 36.5307 148.29 36.0827 147.544 35.464C146.797 34.8453 146.21 33.96 145.784 32.808C145.357 31.656 145.144 30.2693 145.144 28.648C145.144 25.9813 145.805 23.9013 147.128 22.408C148.45 20.8933 150.21 20.136 152.408 20.136C154.69 20.136 156.472 20.8827 157.752 22.376C159.032 23.848 159.672 25.7893 159.672 28.2V29.96ZM155.576 27.112C155.554 26.3867 155.426 25.7893 155.192 25.32C154.68 24.168 153.752 23.592 152.408 23.592C151.064 23.592 150.136 24.168 149.624 25.32C149.389 25.7893 149.261 26.3867 149.24 27.112H155.576ZM177.026 37H172.034L168.962 32.008L165.922 37H160.93L166.69 28.488L161.154 20.328H166.146L168.962 25.096L171.81 20.328H176.802L171.266 28.488L177.026 37Z" fill="#558FF9"/>
</svg>
